<?xml version="1.0" standalone="no"?>
<!DOCTYPE svg PUBLIC "-//W3C//DTD SVG 20010904//EN"
 "http://www.w3.org/TR/2001/REC-SVG-20010904/DTD/svg10.dtd">
<svg version="1.0" xmlns="http://www.w3.org/2000/svg"
 width="500.000000pt" height="500.000000pt" viewBox="0 0 500.000000 500.000000"
 preserveAspectRatio="xMidYMid meet">

<g transform="translate(0.000000,500.000000) scale(0.100000,-0.100000)"
fill="#000000" stroke="none">
<path d="M1083 4989 c-436 -52 -818 -342 -986 -749 -45 -108 -73 -219 -86
-342 -15 -134 -15 -2622 0 -2756 32 -298 160 -557 375 -762 189 -180 447 -300
709 -330 122 -13 2648 -13 2770 0 206 24 431 113 600 238 273 202 449 514 484
861 15 142 15 2616 0 2749 -52 481 -376 885 -829 1036 -194 64 -88 60 -1595
62 -753 1 -1402 -2 -1442 -7z m1943 -174 c287 -35 495 -116 675 -261 218 -177
382 -513 383 -784 0 -122 -17 -200 -69 -307 -61 -124 -176 -256 -354 -407
l-84 -70 64 -55 c292 -250 477 -529 562 -851 28 -107 30 -127 31 -300 1 -205
-7 -266 -59 -426 -77 -235 -210 -440 -412 -636 -279 -267 -550 -382 -903 -381
-122 1 -160 5 -241 26 -211 55 -374 178 -464 348 -134 255 -51 525 203 658
108 55 160 68 202 46 39 -20 65 -76 75 -159 5 -47 13 -66 36 -89 27 -26 35
-29 77 -25 75 8 183 45 250 85 256 156 468 558 500 948 26 315 -72 557 -237
589 -37 7 -322 -35 -410 -60 -69 -20 -134 -64 -167 -114 -14 -21 -50 -117 -80
-213 -162 -525 -388 -920 -706 -1239 -308 -308 -673 -502 -1083 -574 -152 -27
-245 -15 -290 36 -33 37 -27 161 15 275 47 131 85 247 115 354 41 146 88 234
170 316 103 103 213 151 400 176 310 40 492 191 755 629 203 336 330 654 455
1135 40 155 124 517 150 650 35 173 51 220 83 245 48 38 140 11 164 -48 14
-36 5 -226 -26 -532 -63 -618 -66 -686 -41 -745 20 -48 53 -60 135 -46 264 43
498 195 620 401 171 289 116 686 -129 931 -137 137 -264 188 -481 196 -387 14
-757 -153 -995 -449 -168 -211 -184 -341 -57 -466 32 -32 89 -85 128 -119 157
-137 206 -286 143 -432 -61 -141 -180 -247 -339 -302 -88 -30 -268 -33 -350
-5 -235 79 -406 296 -461 583 -15 80 -7 279 15 357 26 95 88 214 157 306 81
108 270 303 374 387 282 229 602 370 950 417 137 19 405 19 551 1z"/>
</g>
</svg>
